<?xml version="1.0" encoding="UTF-8" standalone="no"?>
<!DOCTYPE svg PUBLIC "-//W3C//DTD SVG 1.1//EN"
 "http://www.w3.org/Graphics/SVG/1.1/DTD/svg11.dtd">
<!-- Generated by graphviz version 2.40.1 (20161225.0304)
 -->
<!-- Title: libemail Pages: 1 -->
<svg width="335pt" height="204pt"
 viewBox="0.00 0.00 334.50 204.00" xmlns="http://www.w3.org/2000/svg" xmlns:xlink="http://www.w3.org/1999/xlink">
<g id="graph0" class="graph" transform="scale(1 1) rotate(0) translate(4 200)">
<title>libemail</title>
<polygon fill="#ffffff" stroke="transparent" points="-4,4 -4,-200 330.5,-200 330.5,4 -4,4"/>
<!-- thread -->
<g id="node1" class="node">
<title>thread</title>
<path fill="none" stroke="#000000" stroke-width="1.5" d="M79,-174.5C79,-174.5 154,-174.5 154,-174.5 157.5,-174.5 161,-178 161,-181.5 161,-181.5 161,-188.5 161,-188.5 161,-192 157.5,-195.5 154,-195.5 154,-195.5 79,-195.5 79,-195.5 75.5,-195.5 72,-192 72,-188.5 72,-188.5 72,-181.5 72,-181.5 72,-178 75.5,-174.5 79,-174.5"/>
<text text-anchor="middle" x="116.5" y="-181.9" font-family="Times,serif" font-size="12.00" fill="#000000">MuttThread</text>
</g>
<!-- header -->
<g id="node7" class="node">
<title>header</title>
<path fill="none" stroke="#000000" stroke-width="1.5" d="M92.5,-116.5C92.5,-116.5 140.5,-116.5 140.5,-116.5 144,-116.5 147.5,-120 147.5,-123.5 147.5,-123.5 147.5,-130.5 147.5,-130.5 147.5,-134 144,-137.5 140.5,-137.5 140.5,-137.5 92.5,-137.5 92.5,-137.5 89,-137.5 85.5,-134 85.5,-130.5 85.5,-130.5 85.5,-123.5 85.5,-123.5 85.5,-120 89,-116.5 92.5,-116.5"/>
<text text-anchor="middle" x="116.5" y="-123.9" font-family="Times,serif" font-size="12.00" fill="#000000">Header</text>
</g>
<!-- thread&#45;&gt;header -->
<g id="edge10" class="edge">
<title>thread&#45;&gt;header</title>
<path fill="none" stroke="#000000" d="M112.3279,-174.3619C111.1014,-165.4502 110.9216,-152.6087 111.7885,-142.5447"/>
<polygon fill="#000000" stroke="#000000" points="113.5283,-142.7324 112.3373,-137.5707 110.0494,-142.3486 113.5283,-142.7324"/>
</g>
<!-- envelope -->
<g id="node2" class="node">
<title>envelope</title>
<path fill="none" stroke="#000000" stroke-width="1.5" d="M7.5,-58.5C7.5,-58.5 65.5,-58.5 65.5,-58.5 69,-58.5 72.5,-62 72.5,-65.5 72.5,-65.5 72.5,-72.5 72.5,-72.5 72.5,-76 69,-79.5 65.5,-79.5 65.5,-79.5 7.5,-79.5 7.5,-79.5 4,-79.5 .5,-76 .5,-72.5 .5,-72.5 .5,-65.5 .5,-65.5 .5,-62 4,-58.5 7.5,-58.5"/>
<text text-anchor="middle" x="36.5" y="-65.9" font-family="Times,serif" font-size="12.00" fill="#000000">Envelope</text>
</g>
<!-- address -->
<g id="node3" class="node">
<title>address</title>
<path fill="none" stroke="#000000" stroke-width="1.5" d="M7,-.5C7,-.5 58,-.5 58,-.5 61.5,-.5 65,-4 65,-7.5 65,-7.5 65,-14.5 65,-14.5 65,-18 61.5,-21.5 58,-21.5 58,-21.5 7,-21.5 7,-21.5 3.5,-21.5 0,-18 0,-14.5 0,-14.5 0,-7.5 0,-7.5 0,-4 3.5,-.5 7,-.5"/>
<text text-anchor="middle" x="32.5" y="-7.9" font-family="Times,serif" font-size="12.00" fill="#000000">Address</text>
</g>
<!-- envelope&#45;&gt;address -->
<g id="edge5" class="edge">
<title>envelope&#45;&gt;address</title>
<path fill="none" stroke="#000000" d="M35.7663,-58.3619C35.1574,-49.532 34.2823,-36.844 33.5912,-26.8224"/>
<polygon fill="#000000" stroke="#000000" points="35.319,-26.4384 33.229,-21.5707 31.8273,-26.6792 35.319,-26.4384"/>
</g>
<!-- content -->
<g id="node4" class="node">
<title>content</title>
<path fill="none" stroke="#000000" stroke-width="1.5" d="M175.5,-.5C175.5,-.5 225.5,-.5 225.5,-.5 229,-.5 232.5,-4 232.5,-7.5 232.5,-7.5 232.5,-14.5 232.5,-14.5 232.5,-18 229,-21.5 225.5,-21.5 225.5,-21.5 175.5,-21.5 175.5,-21.5 172,-21.5 168.5,-18 168.5,-14.5 168.5,-14.5 168.5,-7.5 168.5,-7.5 168.5,-4 172,-.5 175.5,-.5"/>
<text text-anchor="middle" x="200.5" y="-7.9" font-family="Times,serif" font-size="12.00" fill="#000000">Content</text>
</g>
<!-- attachptr -->
<g id="node5" class="node">
<title>attachptr</title>
<path fill="none" stroke="#000000" stroke-width="1.5" d="M86,-.5C86,-.5 147,-.5 147,-.5 150.5,-.5 154,-4 154,-7.5 154,-7.5 154,-14.5 154,-14.5 154,-18 150.5,-21.5 147,-21.5 147,-21.5 86,-21.5 86,-21.5 82.5,-21.5 79,-18 79,-14.5 79,-14.5 79,-7.5 79,-7.5 79,-4 82.5,-.5 86,-.5"/>
<text text-anchor="middle" x="116.5" y="-7.9" font-family="Times,serif" font-size="12.00" fill="#000000">AttachPtr</text>
</g>
<!-- body -->
<g id="node6" class="node">
<title>body</title>
<path fill="none" stroke="#000000" stroke-width="1.5" d="M96.5,-58.5C96.5,-58.5 136.5,-58.5 136.5,-58.5 140,-58.5 143.5,-62 143.5,-65.5 143.5,-65.5 143.5,-72.5 143.5,-72.5 143.5,-76 140,-79.5 136.5,-79.5 136.5,-79.5 96.5,-79.5 96.5,-79.5 93,-79.5 89.5,-76 89.5,-72.5 89.5,-72.5 89.5,-65.5 89.5,-65.5 89.5,-62 93,-58.5 96.5,-58.5"/>
<text text-anchor="middle" x="116.5" y="-65.9" font-family="Times,serif" font-size="12.00" fill="#000000">Body</text>
</g>
<!-- attachptr&#45;&gt;body -->
<g id="edge1" class="edge">
<title>attachptr&#45;&gt;body</title>
<path fill="none" stroke="#000000" d="M120.6627,-21.5707C121.8946,-30.4624 122.0797,-43.3011 121.2181,-53.379"/>
<polygon fill="#000000" stroke="#000000" points="119.4772,-53.201 120.6721,-58.3619 122.9563,-53.5823 119.4772,-53.201"/>
</g>
<!-- body&#45;&gt;content -->
<g id="edge3" class="edge">
<title>body&#45;&gt;content</title>
<path fill="none" stroke="#000000" d="M131.9069,-58.3619C145.6423,-48.8779 165.8238,-34.9431 180.7427,-24.6419"/>
<polygon fill="#000000" stroke="#000000" points="182.0706,-25.8517 185.1908,-21.5707 180.0819,-22.9716 182.0706,-25.8517"/>
</g>
<!-- body&#45;&gt;attachptr -->
<g id="edge2" class="edge">
<title>body&#45;&gt;attachptr</title>
<path fill="none" stroke="#000000" d="M112.3279,-58.3619C111.1014,-49.4502 110.9216,-36.6087 111.7885,-26.5447"/>
<polygon fill="#000000" stroke="#000000" points="113.5283,-26.7324 112.3373,-21.5707 110.0494,-26.3486 113.5283,-26.7324"/>
</g>
<!-- parameter -->
<g id="node8" class="node">
<title>parameter</title>
<path fill="none" stroke="#000000" stroke-width="1.5" d="M253.5,-.5C253.5,-.5 319.5,-.5 319.5,-.5 323,-.5 326.5,-4 326.5,-7.5 326.5,-7.5 326.5,-14.5 326.5,-14.5 326.5,-18 323,-21.5 319.5,-21.5 319.5,-21.5 253.5,-21.5 253.5,-21.5 250,-21.5 246.5,-18 246.5,-14.5 246.5,-14.5 246.5,-7.5 246.5,-7.5 246.5,-4 250,-.5 253.5,-.5"/>
<text text-anchor="middle" x="286.5" y="-7.9" font-family="Times,serif" font-size="12.00" fill="#000000">Parameter</text>
</g>
<!-- body&#45;&gt;parameter -->
<g id="edge4" class="edge">
<title>body&#45;&gt;parameter</title>
<path fill="none" stroke="#000000" d="M143.8134,-59.6813C172.7681,-49.8026 218.6321,-34.1549 250.5168,-23.2766"/>
<polygon fill="#000000" stroke="#000000" points="251.3423,-24.8441 255.5093,-21.5733 250.2121,-21.5316 251.3423,-24.8441"/>
</g>
<!-- header&#45;&gt;thread -->
<g id="edge9" class="edge">
<title>header&#45;&gt;thread</title>
<path fill="none" stroke="#000000" d="M120.6627,-137.5707C121.8946,-146.4624 122.0797,-159.3011 121.2181,-169.379"/>
<polygon fill="#000000" stroke="#000000" points="119.4772,-169.201 120.6721,-174.3619 122.9563,-169.5823 119.4772,-169.201"/>
</g>
<!-- header&#45;&gt;envelope -->
<g id="edge7" class="edge">
<title>header&#45;&gt;envelope</title>
<path fill="none" stroke="#000000" d="M101.8268,-116.3619C88.7454,-106.8779 69.5249,-92.9431 55.3165,-82.6419"/>
<polygon fill="#000000" stroke="#000000" points="56.1555,-81.0887 51.0802,-79.5707 54.1011,-83.9224 56.1555,-81.0887"/>
</g>
<!-- header&#45;&gt;body -->
<g id="edge6" class="edge">
<title>header&#45;&gt;body</title>
<path fill="none" stroke="#000000" d="M116.5,-116.3619C116.5,-107.532 116.5,-94.844 116.5,-84.8224"/>
<polygon fill="#000000" stroke="#000000" points="118.2501,-84.5706 116.5,-79.5707 114.7501,-84.5707 118.2501,-84.5706"/>
</g>
<!-- tags -->
<g id="node9" class="node">
<title>tags</title>
<path fill="none" stroke="#000000" stroke-width="1.5" d="M164.5,-58.5C164.5,-58.5 204.5,-58.5 204.5,-58.5 208,-58.5 211.5,-62 211.5,-65.5 211.5,-65.5 211.5,-72.5 211.5,-72.5 211.5,-76 208,-79.5 204.5,-79.5 204.5,-79.5 164.5,-79.5 164.5,-79.5 161,-79.5 157.5,-76 157.5,-72.5 157.5,-72.5 157.5,-65.5 157.5,-65.5 157.5,-62 161,-58.5 164.5,-58.5"/>
<text text-anchor="middle" x="184.5" y="-65.9" font-family="Times,serif" font-size="12.00" fill="#000000">Tags</text>
</g>
<!-- header&#45;&gt;tags -->
<g id="edge8" class="edge">
<title>header&#45;&gt;tags</title>
<path fill="none" stroke="#000000" d="M128.9722,-116.3619C139.9955,-106.9597 156.1475,-93.183 168.1927,-82.9092"/>
<polygon fill="#000000" stroke="#000000" points="169.4383,-84.1469 172.1068,-79.5707 167.167,-81.484 169.4383,-84.1469"/>
</g>
</g>
</svg>
