<?xml version="1.0" encoding="UTF-8" standalone="no"?>
<!DOCTYPE svg PUBLIC "-//W3C//DTD SVG 1.1//EN"
 "http://www.w3.org/Graphics/SVG/1.1/DTD/svg11.dtd">
<!-- Generated by graphviz version 2.40.1 (20161225.0304)
 -->
<!-- Title: m2 Pages: 1 -->
<svg width="534pt" height="320pt"
 viewBox="0.00 0.00 534.00 320.00" xmlns="http://www.w3.org/2000/svg" xmlns:xlink="http://www.w3.org/1999/xlink">
<g id="graph0" class="graph" transform="scale(1 1) rotate(0) translate(4 316)">
<title>m2</title>
<polygon fill="#ffffff" stroke="transparent" points="-4,4 -4,-316 530,-316 530,4 -4,4"/>
<!-- buffer -->
<g id="node1" class="node">
<title>buffer</title>
<path fill="none" stroke="#000000" stroke-width="1.5" d="M309,-232.5C309,-232.5 349,-232.5 349,-232.5 352.5,-232.5 356,-236 356,-239.5 356,-239.5 356,-246.5 356,-246.5 356,-250 352.5,-253.5 349,-253.5 349,-253.5 309,-253.5 309,-253.5 305.5,-253.5 302,-250 302,-246.5 302,-246.5 302,-239.5 302,-239.5 302,-236 305.5,-232.5 309,-232.5"/>
<text text-anchor="middle" x="329" y="-239.9" font-family="Times,serif" font-size="12.00" fill="#000000">buffer</text>
</g>
<!-- string -->
<g id="node2" class="node">
<title>string</title>
<path fill="none" stroke="#000000" stroke-width="1.5" d="M241,-174.5C241,-174.5 281,-174.5 281,-174.5 284.5,-174.5 288,-178 288,-181.5 288,-181.5 288,-188.5 288,-188.5 288,-192 284.5,-195.5 281,-195.5 281,-195.5 241,-195.5 241,-195.5 237.5,-195.5 234,-192 234,-188.5 234,-188.5 234,-181.5 234,-181.5 234,-178 237.5,-174.5 241,-174.5"/>
<text text-anchor="middle" x="261" y="-181.9" font-family="Times,serif" font-size="12.00" fill="#000000">string</text>
</g>
<!-- buffer&#45;&gt;string -->
<g id="edge1" class="edge">
<title>buffer&#45;&gt;string</title>
<path fill="none" stroke="#000000" d="M316.5278,-232.3619C305.5045,-222.9597 289.3525,-209.183 277.3073,-198.9092"/>
<polygon fill="#000000" stroke="#000000" points="278.333,-197.484 273.3932,-195.5707 276.0617,-200.1469 278.333,-197.484"/>
</g>
<!-- memory -->
<g id="node15" class="node">
<title>memory</title>
<path fill="none" stroke="#000000" stroke-width="1.5" d="M290,-116.5C290,-116.5 342,-116.5 342,-116.5 345.5,-116.5 349,-120 349,-123.5 349,-123.5 349,-130.5 349,-130.5 349,-134 345.5,-137.5 342,-137.5 342,-137.5 290,-137.5 290,-137.5 286.5,-137.5 283,-134 283,-130.5 283,-130.5 283,-123.5 283,-123.5 283,-120 286.5,-116.5 290,-116.5"/>
<text text-anchor="middle" x="316" y="-123.9" font-family="Times,serif" font-size="12.00" fill="#000000">memory</text>
</g>
<!-- string&#45;&gt;memory -->
<g id="edge19" class="edge">
<title>string&#45;&gt;memory</title>
<path fill="none" stroke="#000000" d="M271.0878,-174.3619C279.8487,-165.1232 292.6147,-151.6609 302.299,-141.4483"/>
<polygon fill="#000000" stroke="#000000" points="303.8055,-142.403 305.9761,-137.5707 301.2658,-139.9946 303.8055,-142.403"/>
</g>
<!-- charset -->
<g id="node3" class="node">
<title>charset</title>
<path fill="none" stroke="#000000" stroke-width="1.5" d="M29,-232.5C29,-232.5 77,-232.5 77,-232.5 80.5,-232.5 84,-236 84,-239.5 84,-239.5 84,-246.5 84,-246.5 84,-250 80.5,-253.5 77,-253.5 77,-253.5 29,-253.5 29,-253.5 25.5,-253.5 22,-250 22,-246.5 22,-246.5 22,-239.5 22,-239.5 22,-236 25.5,-232.5 29,-232.5"/>
<text text-anchor="middle" x="53" y="-239.9" font-family="Times,serif" font-size="12.00" fill="#000000">charset</text>
</g>
<!-- regex -->
<g id="node4" class="node">
<title>regex</title>
<path fill="none" stroke="#000000" stroke-width="1.5" d="M7,-174.5C7,-174.5 47,-174.5 47,-174.5 50.5,-174.5 54,-178 54,-181.5 54,-181.5 54,-188.5 54,-188.5 54,-192 50.5,-195.5 47,-195.5 47,-195.5 7,-195.5 7,-195.5 3.5,-195.5 0,-192 0,-188.5 0,-188.5 0,-181.5 0,-181.5 0,-178 3.5,-174.5 7,-174.5"/>
<text text-anchor="middle" x="27" y="-181.9" font-family="Times,serif" font-size="12.00" fill="#000000">regex</text>
</g>
<!-- charset&#45;&gt;regex -->
<g id="edge2" class="edge">
<title>charset&#45;&gt;regex</title>
<path fill="none" stroke="#000000" d="M48.2312,-232.3619C44.1997,-223.3685 38.374,-210.3727 33.8445,-200.2684"/>
<polygon fill="#000000" stroke="#000000" points="35.3808,-199.4173 31.7386,-195.5707 32.187,-200.8491 35.3808,-199.4173"/>
</g>
<!-- mbyte -->
<g id="node13" class="node">
<title>mbyte</title>
<path fill="none" stroke="#000000" stroke-width="1.5" d="M33,-290.5C33,-290.5 73,-290.5 73,-290.5 76.5,-290.5 80,-294 80,-297.5 80,-297.5 80,-304.5 80,-304.5 80,-308 76.5,-311.5 73,-311.5 73,-311.5 33,-311.5 33,-311.5 29.5,-311.5 26,-308 26,-304.5 26,-304.5 26,-297.5 26,-297.5 26,-294 29.5,-290.5 33,-290.5"/>
<text text-anchor="middle" x="53" y="-297.9" font-family="Times,serif" font-size="12.00" fill="#000000">mbyte</text>
</g>
<!-- regex&#45;&gt;mbyte -->
<g id="edge17" class="edge">
<title>regex&#45;&gt;mbyte</title>
<path fill="none" stroke="#000000" d="M21.9237,-195.5636C16.0244,-209.3459 7.9454,-234.0542 15,-254 19.39,-266.4121 28.6048,-277.9474 36.8605,-286.4839"/>
<polygon fill="#000000" stroke="#000000" points="36.035,-288.1322 40.8109,-290.4243 38.5067,-285.6542 36.035,-288.1322"/>
</g>
<!-- date -->
<g id="node5" class="node">
<title>date</title>
<path fill="none" stroke="#000000" stroke-width="1.5" d="M105,-232.5C105,-232.5 145,-232.5 145,-232.5 148.5,-232.5 152,-236 152,-239.5 152,-239.5 152,-246.5 152,-246.5 152,-250 148.5,-253.5 145,-253.5 145,-253.5 105,-253.5 105,-253.5 101.5,-253.5 98,-250 98,-246.5 98,-246.5 98,-239.5 98,-239.5 98,-236 101.5,-232.5 105,-232.5"/>
<text text-anchor="middle" x="125" y="-239.9" font-family="Times,serif" font-size="12.00" fill="#000000">date</text>
</g>
<!-- date&#45;&gt;string -->
<g id="edge3" class="edge">
<title>date&#45;&gt;string</title>
<path fill="none" stroke="#000000" d="M149.6286,-232.4966C172.5923,-222.7033 206.8818,-208.0798 231.3406,-197.6488"/>
<polygon fill="#000000" stroke="#000000" points="232.1824,-199.1924 236.0951,-195.6212 230.8093,-195.973 232.1824,-199.1924"/>
</g>
<!-- file -->
<g id="node6" class="node">
<title>file</title>
<path fill="none" stroke="#000000" stroke-width="1.5" d="M171,-.5C171,-.5 211,-.5 211,-.5 214.5,-.5 218,-4 218,-7.5 218,-7.5 218,-14.5 218,-14.5 218,-18 214.5,-21.5 211,-21.5 211,-21.5 171,-21.5 171,-21.5 167.5,-21.5 164,-18 164,-14.5 164,-14.5 164,-7.5 164,-7.5 164,-4 167.5,-.5 171,-.5"/>
<text text-anchor="middle" x="191" y="-7.9" font-family="Times,serif" font-size="12.00" fill="#000000">file</text>
</g>
<!-- file&#45;&gt;string -->
<g id="edge4" class="edge">
<title>file&#45;&gt;string</title>
<path fill="none" stroke="#000000" d="M187.0351,-21.5711C182.4742,-35.3613 176.4101,-60.0783 183,-80 195.369,-117.3925 226.7797,-152.3132 245.7537,-170.9484"/>
<polygon fill="#000000" stroke="#000000" points="244.5642,-172.2326 249.3733,-174.4542 246.9993,-169.7185 244.5642,-172.2326"/>
</g>
<!-- hash -->
<g id="node7" class="node">
<title>hash</title>
<path fill="none" stroke="#000000" stroke-width="1.5" d="M173,-232.5C173,-232.5 213,-232.5 213,-232.5 216.5,-232.5 220,-236 220,-239.5 220,-239.5 220,-246.5 220,-246.5 220,-250 216.5,-253.5 213,-253.5 213,-253.5 173,-253.5 173,-253.5 169.5,-253.5 166,-250 166,-246.5 166,-246.5 166,-239.5 166,-239.5 166,-236 169.5,-232.5 173,-232.5"/>
<text text-anchor="middle" x="193" y="-239.9" font-family="Times,serif" font-size="12.00" fill="#000000">hash</text>
</g>
<!-- hash&#45;&gt;string -->
<g id="edge5" class="edge">
<title>hash&#45;&gt;string</title>
<path fill="none" stroke="#000000" d="M205.4722,-232.3619C216.4955,-222.9597 232.6475,-209.183 244.6927,-198.9092"/>
<polygon fill="#000000" stroke="#000000" points="245.9383,-200.1469 248.6068,-195.5707 243.667,-197.484 245.9383,-200.1469"/>
</g>
<!-- list -->
<g id="node8" class="node">
<title>list</title>
<path fill="none" stroke="#000000" stroke-width="1.5" d="M241,-232.5C241,-232.5 281,-232.5 281,-232.5 284.5,-232.5 288,-236 288,-239.5 288,-239.5 288,-246.5 288,-246.5 288,-250 284.5,-253.5 281,-253.5 281,-253.5 241,-253.5 241,-253.5 237.5,-253.5 234,-250 234,-246.5 234,-246.5 234,-239.5 234,-239.5 234,-236 237.5,-232.5 241,-232.5"/>
<text text-anchor="middle" x="261" y="-239.9" font-family="Times,serif" font-size="12.00" fill="#000000">list</text>
</g>
<!-- list&#45;&gt;string -->
<g id="edge6" class="edge">
<title>list&#45;&gt;string</title>
<path fill="none" stroke="#000000" d="M261,-232.3619C261,-223.532 261,-210.844 261,-200.8224"/>
<polygon fill="#000000" stroke="#000000" points="262.7501,-200.5706 261,-195.5707 259.2501,-200.5707 262.7501,-200.5706"/>
</g>
<!-- logging -->
<g id="node9" class="node">
<title>logging</title>
<path fill="none" stroke="#000000" stroke-width="1.5" d="M265,-58.5C265,-58.5 313,-58.5 313,-58.5 316.5,-58.5 320,-62 320,-65.5 320,-65.5 320,-72.5 320,-72.5 320,-76 316.5,-79.5 313,-79.5 313,-79.5 265,-79.5 265,-79.5 261.5,-79.5 258,-76 258,-72.5 258,-72.5 258,-65.5 258,-65.5 258,-62 261.5,-58.5 265,-58.5"/>
<text text-anchor="middle" x="289" y="-65.9" font-family="Times,serif" font-size="12.00" fill="#000000">logging</text>
</g>
<!-- logging&#45;&gt;string -->
<g id="edge10" class="edge">
<title>logging&#45;&gt;string</title>
<path fill="none" stroke="#000000" d="M285.8333,-79.7823C283.0882,-89.2796 279.0833,-103.5064 276,-116 271.54,-134.0723 267.0935,-154.981 264.2137,-169.0032"/>
<polygon fill="#000000" stroke="#000000" points="262.4383,-168.9516 263.1533,-174.2006 265.8676,-169.6513 262.4383,-168.9516"/>
</g>
<!-- logging&#45;&gt;file -->
<g id="edge7" class="edge">
<title>logging&#45;&gt;file</title>
<path fill="none" stroke="#000000" d="M271.0253,-58.3619C254.8625,-48.7962 231.049,-34.7025 213.6014,-24.3764"/>
<polygon fill="#000000" stroke="#000000" points="214.055,-22.6113 208.8608,-21.5707 212.2723,-25.6233 214.055,-22.6113"/>
</g>
<!-- message -->
<g id="node10" class="node">
<title>message</title>
<path fill="none" stroke="#000000" stroke-width="1.5" d="M250,-.5C250,-.5 304,-.5 304,-.5 307.5,-.5 311,-4 311,-7.5 311,-7.5 311,-14.5 311,-14.5 311,-18 307.5,-21.5 304,-21.5 304,-21.5 250,-21.5 250,-21.5 246.5,-21.5 243,-18 243,-14.5 243,-14.5 243,-7.5 243,-7.5 243,-4 246.5,-.5 250,-.5"/>
<text text-anchor="middle" x="277" y="-7.9" font-family="Times,serif" font-size="12.00" fill="#000000">message</text>
</g>
<!-- logging&#45;&gt;message -->
<g id="edge8" class="edge">
<title>logging&#45;&gt;message</title>
<path fill="none" stroke="#000000" d="M286.799,-58.3619C284.9552,-49.4502 282.2983,-36.6087 280.2161,-26.5447"/>
<polygon fill="#000000" stroke="#000000" points="281.9138,-26.1124 279.187,-21.5707 278.4864,-26.8215 281.9138,-26.1124"/>
</g>
<!-- queue -->
<g id="node11" class="node">
<title>queue</title>
<path fill="none" stroke="#000000" stroke-width="1.5" d="M343,-.5C343,-.5 383,-.5 383,-.5 386.5,-.5 390,-4 390,-7.5 390,-7.5 390,-14.5 390,-14.5 390,-18 386.5,-21.5 383,-21.5 383,-21.5 343,-21.5 343,-21.5 339.5,-21.5 336,-18 336,-14.5 336,-14.5 336,-7.5 336,-7.5 336,-4 339.5,-.5 343,-.5"/>
<text text-anchor="middle" x="363" y="-7.9" font-family="Times,serif" font-size="12.00" fill="#000000">queue</text>
</g>
<!-- logging&#45;&gt;queue -->
<g id="edge9" class="edge">
<title>logging&#45;&gt;queue</title>
<path fill="none" stroke="#000000" d="M302.5727,-58.3619C314.5687,-48.9597 332.1458,-35.183 345.2538,-24.9092"/>
<polygon fill="#000000" stroke="#000000" points="346.6576,-26.0325 349.5133,-21.5707 344.4985,-23.2777 346.6576,-26.0325"/>
</g>
<!-- mapping -->
<g id="node12" class="node">
<title>mapping</title>
<path fill="none" stroke="#000000" stroke-width="1.5" d="M377.5,-232.5C377.5,-232.5 432.5,-232.5 432.5,-232.5 436,-232.5 439.5,-236 439.5,-239.5 439.5,-239.5 439.5,-246.5 439.5,-246.5 439.5,-250 436,-253.5 432.5,-253.5 432.5,-253.5 377.5,-253.5 377.5,-253.5 374,-253.5 370.5,-250 370.5,-246.5 370.5,-246.5 370.5,-239.5 370.5,-239.5 370.5,-236 374,-232.5 377.5,-232.5"/>
<text text-anchor="middle" x="405" y="-239.9" font-family="Times,serif" font-size="12.00" fill="#000000">mapping</text>
</g>
<!-- mapping&#45;&gt;string -->
<g id="edge11" class="edge">
<title>mapping&#45;&gt;string</title>
<path fill="none" stroke="#000000" d="M378.9227,-232.4966C354.5068,-222.6625 317.9989,-207.9579 292.0809,-197.5187"/>
<polygon fill="#000000" stroke="#000000" points="292.6617,-195.8661 287.3699,-195.6212 291.354,-199.1126 292.6617,-195.8661"/>
</g>
<!-- mbyte&#45;&gt;buffer -->
<g id="edge12" class="edge">
<title>mbyte&#45;&gt;buffer</title>
<path fill="none" stroke="#000000" d="M80.0962,-296.838C125.0943,-289.6813 217.9155,-273.8771 295,-254 295.7134,-253.816 296.4338,-253.6255 297.1589,-253.4293"/>
<polygon fill="#000000" stroke="#000000" points="297.6554,-255.1076 301.9913,-252.0642 296.7039,-251.7395 297.6554,-255.1076"/>
</g>
<!-- mbyte&#45;&gt;charset -->
<g id="edge13" class="edge">
<title>mbyte&#45;&gt;charset</title>
<path fill="none" stroke="#000000" d="M53,-290.3619C53,-281.532 53,-268.844 53,-258.8224"/>
<polygon fill="#000000" stroke="#000000" points="54.7501,-258.5706 53,-253.5707 51.2501,-258.5707 54.7501,-258.5706"/>
</g>
<!-- md5 -->
<g id="node14" class="node">
<title>md5</title>
<path fill="none" stroke="#000000" stroke-width="1.5" d="M411,-.5C411,-.5 451,-.5 451,-.5 454.5,-.5 458,-4 458,-7.5 458,-7.5 458,-14.5 458,-14.5 458,-18 454.5,-21.5 451,-21.5 451,-21.5 411,-21.5 411,-21.5 407.5,-21.5 404,-18 404,-14.5 404,-14.5 404,-7.5 404,-7.5 404,-4 407.5,-.5 411,-.5"/>
<text text-anchor="middle" x="431" y="-7.9" font-family="Times,serif" font-size="12.00" fill="#000000">md5</text>
</g>
<!-- memory&#45;&gt;logging -->
<g id="edge15" class="edge">
<title>memory&#45;&gt;logging</title>
<path fill="none" stroke="#000000" d="M311.0478,-116.3619C306.8612,-107.3685 300.8114,-94.3727 296.1077,-84.2684"/>
<polygon fill="#000000" stroke="#000000" points="297.6175,-83.365 293.9208,-79.5707 294.4445,-84.8421 297.6175,-83.365"/>
</g>
<!-- exit -->
<g id="node16" class="node">
<title>exit</title>
<path fill="none" stroke="#000000" stroke-width="1.5" d="M435,-58.5C435,-58.5 475,-58.5 475,-58.5 478.5,-58.5 482,-62 482,-65.5 482,-65.5 482,-72.5 482,-72.5 482,-76 478.5,-79.5 475,-79.5 475,-79.5 435,-79.5 435,-79.5 431.5,-79.5 428,-76 428,-72.5 428,-72.5 428,-65.5 428,-65.5 428,-62 431.5,-58.5 435,-58.5"/>
<text text-anchor="middle" x="455" y="-65.9" font-family="Times,serif" font-size="12.00" fill="#000000">exit</text>
</g>
<!-- memory&#45;&gt;exit -->
<g id="edge14" class="edge">
<title>memory&#45;&gt;exit</title>
<path fill="none" stroke="#000000" d="M341.1719,-116.4966C364.6422,-106.7033 399.688,-92.0798 424.6864,-81.6488"/>
<polygon fill="#000000" stroke="#000000" points="425.6052,-83.1618 429.5457,-79.6212 424.2574,-79.9317 425.6052,-83.1618"/>
</g>
<!-- parameter -->
<g id="node17" class="node">
<title>parameter</title>
<path fill="none" stroke="#000000" stroke-width="1.5" d="M341,-58.5C341,-58.5 407,-58.5 407,-58.5 410.5,-58.5 414,-62 414,-65.5 414,-65.5 414,-72.5 414,-72.5 414,-76 410.5,-79.5 407,-79.5 407,-79.5 341,-79.5 341,-79.5 337.5,-79.5 334,-76 334,-72.5 334,-72.5 334,-65.5 334,-65.5 334,-62 337.5,-58.5 341,-58.5"/>
<text text-anchor="middle" x="374" y="-65.9" font-family="Times,serif" font-size="12.00" fill="#000000">parameter</text>
</g>
<!-- parameter&#45;&gt;queue -->
<g id="edge16" class="edge">
<title>parameter&#45;&gt;queue</title>
<path fill="none" stroke="#000000" d="M371.9824,-58.3619C370.2923,-49.4502 367.8568,-36.6087 365.9481,-26.5447"/>
<polygon fill="#000000" stroke="#000000" points="367.6559,-26.157 365.0048,-21.5707 364.2172,-26.8092 367.6559,-26.157"/>
</g>
<!-- sha1 -->
<g id="node18" class="node">
<title>sha1</title>
<path fill="none" stroke="#000000" stroke-width="1.5" d="M479,-.5C479,-.5 519,-.5 519,-.5 522.5,-.5 526,-4 526,-7.5 526,-7.5 526,-14.5 526,-14.5 526,-18 522.5,-21.5 519,-21.5 519,-21.5 479,-21.5 479,-21.5 475.5,-21.5 472,-18 472,-14.5 472,-14.5 472,-7.5 472,-7.5 472,-4 475.5,-.5 479,-.5"/>
<text text-anchor="middle" x="499" y="-7.9" font-family="Times,serif" font-size="12.00" fill="#000000">sha1</text>
</g>
<!-- signal -->
<g id="node19" class="node">
<title>signal</title>
<path fill="none" stroke="#000000" stroke-width="1.5" d="M197,-58.5C197,-58.5 237,-58.5 237,-58.5 240.5,-58.5 244,-62 244,-65.5 244,-65.5 244,-72.5 244,-72.5 244,-76 240.5,-79.5 237,-79.5 237,-79.5 197,-79.5 197,-79.5 193.5,-79.5 190,-76 190,-72.5 190,-72.5 190,-65.5 190,-65.5 190,-62 193.5,-58.5 197,-58.5"/>
<text text-anchor="middle" x="217" y="-65.9" font-family="Times,serif" font-size="12.00" fill="#000000">signal</text>
</g>
<!-- signal&#45;&gt;message -->
<g id="edge18" class="edge">
<title>signal&#45;&gt;message</title>
<path fill="none" stroke="#000000" d="M228.0049,-58.3619C237.6468,-49.0415 251.7356,-35.4223 262.3331,-25.178"/>
<polygon fill="#000000" stroke="#000000" points="263.6862,-26.304 266.0648,-21.5707 261.2536,-23.7876 263.6862,-26.304"/>
</g>
</g>
</svg>
